<?xml version="1.0" encoding="utf-8"?>
<!-- Generator: Adobe Illustrator 24.0.2, SVG Export Plug-In . SVG Version: 6.00 Build 0)  -->
<svg version="1.1" id="Layer_1" xmlns="http://www.w3.org/2000/svg" xmlns:xlink="http://www.w3.org/1999/xlink" x="0px" y="0px"
	 viewBox="0 0 425.2 425.2" style="enable-background:new 0 0 425.2 425.2;" xml:space="preserve">
<style type="text/css">
	.st0{fill:#78CEDC;}
	.st1{fill:#F58921;}
	.st2{fill:#EAE740;}
	.st3{fill:#5B53A2;}
	.st4{fill:#4174B8;}
	.st5{fill:#6ABC45;}
	.st6{fill:#EC1C24;}
	.st7{fill:#A8519E;}
</style>
<rect x="0.05" width="425.34" height="425.23"/>
<path class="st0" d="M213.6,321.89c0-1.22,0.99-2.21,2.21-2.21c3.64,0,7.01,0,10.39,0c7.4,0,14.81,0.07,22.21-0.02
	c6.09-0.07,10.05-4.96,8.14-10.13c-0.7-1.89-2.25-3.45-3.21-5.26c-0.88-1.65-1.74-3.37-2.18-5.17c-1.59-6.46,0.68-11.14,7.06-12.64
	c4.26-1.01,9.06-1.26,13.33-0.41c8.6,1.71,11.39,8.94,7.1,16.78c-0.77,1.42-1.65,2.79-2.64,4.07c-1.96,2.55-2.84,5.21-1.25,8.26
	c1.63,3.13,4.46,4.44,7.76,4.47c10.56,0.11,21.12,0.05,31.69,0.05c0.36,0,0.71,0,1.09,0c1.23,0,2.26,0.96,2.33,2.19
	c0.02,0.37,0.04,0.73,0.04,1.09c0.02,10.65-0.03,21.3,0.03,31.95c0.03,5.29,4.27,8.99,9.17,8.01c1.25-0.25,2.37-1.17,3.55-1.77
	c2.62-1.33,5.13-2.98,7.89-3.9c5.21-1.74,9.8,0.17,12,5.34c2.72,6.39,2.77,13.03-0.69,19.26c-2.5,4.5-7.3,6.03-12.1,4.03
	c-2.55-1.07-5.01-2.43-7.32-3.95c-2.46-1.62-4.82-2.94-7.72-1.26c-3.02,1.74-4.8,4.27-4.81,7.87c-0.01,10.56-0.01,21.12-0.02,31.68
	c0,0.51,0,1.02,0,1.56c0,1.05-0.82,1.93-1.87,1.98c-0.44,0.02-0.86,0.04-1.28,0.04c-32.59,0.01-65.18-0.02-97.77,0.06
	c-2.51,0.01-3.21-0.68-3.18-3.17c0.13-10.81,0.04-21.62,0.06-32.44c0.01-2.83-0.96-5.16-3.29-6.83c-2.31-1.65-5.45-1.67-7.88-0.2
	c-2.53,1.53-5,3.26-7.72,4.33c-6.97,2.74-11.88,0.23-14.22-6.93c-1.75-5.37-1.4-10.71,0.59-15.9c2.2-5.75,8.34-7.57,15.05-4.55
	c1.86,0.84,3.66,1.95,5.26,3.22c2.48,1.97,5.28,2.33,7.88,1.1c2.81-1.33,4.33-3.93,4.32-7.24c-0.02-10.65,0-21.3,0.01-31.95
	C213.6,322.85,213.6,322.39,213.6,321.89z"/>
<path class="st1" d="M215.39,211.51c-0.92,0-1.67-0.75-1.67-1.68c0-5.88-0.01-11.54,0-17.2c0.01-5.23,0.1-10.47,0.06-15.7
	c-0.03-3.34-1.16-6.2-4.25-7.91c-3.33-1.85-6.07-0.45-9.02,1.32c-2.87,1.72-6.04,3.2-9.27,3.98c-4.06,0.98-7.57-0.72-9.47-4.53
	c-3.29-6.59-3.41-13.43-0.1-20c2.47-4.92,7.29-6.48,12.43-4.33c2.63,1.1,5.22,2.47,7.5,4.18c5.54,4.15,11.23-0.21,11.98-5.23
	c0.17-1.15,0.22-2.34,0.22-3.5c0.02-9.93,0.01-19.86,0.01-29.79c0-0.4,0-0.85,0.01-1.31c0.01-1.1,0.91-1.97,2.01-1.97
	c0.01,0,0.01,0,0.02,0c11.01-0.01,22.03-0.05,33.04,0.01c4.29,0.02,6.76,2.75,6.16,6.65c-0.13,0.83-0.67,1.61-1.06,2.39
	c-1.49,2.95-3.33,5.77-4.42,8.86c-2.16,6.12,0.17,11.74,6.06,14.38c6.55,2.95,13.43,2.99,19.99,0.16c6.93-2.99,8.95-9.75,5.56-17.31
	c-0.87-1.95-1.98-3.86-3.3-5.53c-1.56-1.97-2.2-4.09-1.14-6.25c1.15-2.33,3.36-3.38,6.03-3.37c7.4,0.02,14.8,0,22.21,0
	c3.36,0,6.72,0,10.53,0c1.34,0,2.43,1.08,2.43,2.42c0.01,2.75,0.02,5.43-0.01,8.12c-0.07,8.39-0.28,16.78-0.21,25.16
	c0.03,3.06,1.78,5.35,4.5,6.89c2.77,1.57,5.03,0.59,7.56-0.81c3.4-1.89,6.95-3.81,10.67-4.73c4.49-1.11,7.97,1.31,9.72,5.49
	c2.57,6.17,2.62,12.53-0.22,18.63c-2.6,5.57-7.29,6.45-13.32,4.52c-2.42-0.78-4.64-2.35-6.78-3.82c-2.52-1.73-5.03-2.41-7.83-0.9
	c-2.85,1.54-4.35,3.96-4.36,7.22c-0.02,10.83-0.07,21.66,0.04,32.49c0.02,2.31-0.5,3.11-2.98,3.08c-10.38-0.14-20.76-0.1-31.14-0.02
	c-1.57,0.01-3.23,0.36-4.7,0.93c-4.82,1.89-6.19,6.68-3.37,11.03c1.36,2.1,2.88,4.17,3.81,6.47c3.71,9.21-1.07,14.36-8.8,15.48
	c-4.06,0.59-8.52,0.22-12.51-0.83c-6.68-1.76-9.13-7.9-6.3-14.35c0.97-2.21,2.12-4.42,3.64-6.27c1.89-2.29,2.45-5.5,0.99-8.09
	c-1.69-2.99-4.6-4.44-8.15-4.43c-10.92,0.02-21.85,0.01-32.77,0.01C215.4,211.51,215.39,211.51,215.39,211.51z"/>
<path class="st2" d="M1.55,210.01c0-11.03,0-87.28,0-100.41c0-1.09,0.86-1.97,1.95-2.03c0.56-0.03,1.09-0.05,1.63-0.06
	c10.56-0.01,21.12-0.05,31.68,0.03c3.66,0.03,6.17-1.6,7.85-4.7c1.57-2.92,0.21-5.27-1.37-7.74c-1.58-2.48-3.03-5.1-4.08-7.84
	c-2.01-5.22,0.58-10.71,5.9-12.45c5.24-1.72,10.38-1.78,15.71-0.42c6.71,1.72,9.62,7.98,6.62,14.87c-0.92,2.12-2.25,4.09-3.57,6.01
	c-1.78,2.59-2.41,5.31-0.89,8.12c1.47,2.72,3.89,4.13,7.08,4.12c10.65-0.02,21.3-0.01,31.95,0c0.54,0,1.08,0.02,1.66,0.06
	c1.04,0.06,1.86,0.92,1.86,1.96c0,2.64,0,5.18,0,7.71c0,8.3-0.06,16.61,0.01,24.91c0.03,3.31,1.26,6.18,4.28,7.9
	c3.21,1.83,5.94,0.62,8.77-1.26c2.44-1.62,5.09-3.33,7.88-3.94c6.81-1.49,11.38,1.48,12.79,8.58c0.97,4.89,1.19,9.99-0.99,14.87
	c-2.6,5.82-7.31,7.11-13.45,5.14c-2.25-0.72-4.32-2.15-6.31-3.48c-2.6-1.73-5.13-2.98-8.27-1.36c-3.37,1.74-4.66,4.66-4.68,8.19
	c-0.06,10.47-0.02,20.94-0.02,31.41c0,0.66,0,1.32,0,2.06c0,0.63-0.5,1.16-1.13,1.21c-0.7,0.05-1.33,0.09-1.97,0.09
	c-10.65,0.01-21.3-0.06-31.95,0.05c-2.71,0.03-4.77-0.67-6.02-3.13c-1.2-2.35,0.12-4.09,1.42-5.89c2.56-3.54,4.49-7.28,4.58-11.86
	c0.09-4.7-1.55-8.34-5.77-10.42c-7.13-3.52-14.55-3.6-21.61-0.21c-6.92,3.32-7.48,9.78-5.17,15.93c0.97,2.56,2.64,4.89,4.14,7.22
	c1.16,1.8,1.71,3.53,0.6,5.54c-1.06,1.91-2.55,2.81-4.82,2.8c-3.07-0.02-6.13-0.03-9.2-0.03c-6.13-0.01-12.27,0-18.4,0
	c-2.08,0-4.16,0-6.24,0c-0.35,0-0.7-0.03-1.08-0.07C2.13,211.41,1.55,210.77,1.55,210.01z"/>
<path class="st3" d="M210.08,319.7c0.79,0,1.43,0.64,1.43,1.44c0,0.75,0,1.41,0,2.08c0,10.48-0.09,20.97,0.05,31.45
	c0.03,2.34-1.03,4.63-2.98,5.92c-2.7,1.78-4.53,0.11-6.51-1.21c-3.37-2.26-6.76-4.46-11.06-4.46c-6.77-0.01-10.62,2.55-12.45,9.13
	c-1.47,5.27-1.52,10.74,0.29,15.98c2.69,7.82,9.89,10.76,17.41,7.2c2.42-1.15,4.68-2.64,6.94-4.09c1.86-1.2,3.93-1.62,5.53-0.25
	c1.29,1.1,2.62,3.01,2.65,4.58c0.22,11.34,0.13,22.7,0.11,34.05c0,0.39-0.05,0.77-0.11,1.18c-0.08,0.57-0.58,1-1.16,1h-100.3
	c-1.24,0-2.25-1.01-2.25-2.25c0-0.26,0-0.51,0-0.76c0-10.47,0.17-20.94-0.12-31.4c-0.07-2.39-1.25-5.07-2.72-7.01
	c-2.25-2.98-5.49-3.09-8.66-0.97c-3.66,2.45-7.2,5.07-11.88,5.28c-4.17,0.19-7.26-1.52-8.98-5.19c-3.07-6.57-3.15-13.32,0.18-19.79
	c2.6-5.05,8.29-6.28,14.37-3.42c1.7,0.8,3.4,1.73,4.82,2.92c2.56,2.15,5.47,2.8,8.29,1.42c3.08-1.5,4.67-4.42,4.67-7.97
	c0.02-10.56,0.01-21.12,0.01-31.67c0-0.41,0-0.83,0-1.26c0-1.05,0.85-1.9,1.9-1.9c0.75,0,1.44,0,2.13,0c9.79,0,19.59,0.1,29.37-0.08
	c1.43-0.03,2.86-0.23,4.21-0.68c6.17-2.04,7.36-6.89,4.31-11.33c-1.36-1.99-2.77-4.02-3.68-6.23c-3.22-7.8-0.59-13.48,7.55-15.35
	c4.7-1.08,9.61-1.12,14.37,0.66c6.66,2.49,7.66,8.15,5.7,13.91c-0.76,2.25-2.1,4.37-3.5,6.32c-1.95,2.72-2.9,5.47-1.11,8.51
	c1.68,2.84,4.39,4.22,7.65,4.24c10.47,0.05,20.94,0.02,31.41,0.02H210.08z"/>
<path class="st4" d="M105.47,248.98c0,2.57-0.74,4.9-3.14,6.18c-2.47,1.33-4.58,0.35-6.69-1.24c-1.77-1.33-3.77-2.45-5.83-3.28
	c-8.85-3.54-16.91,0.21-17.91,10.46c-0.41,4.24-0.63,8.78,0.45,12.82c2.36,8.84,10.41,11.72,18.87,7.32
	c1.82-0.95,3.54-2.12,5.21-3.32c3.6-2.57,7.37-1.31,8.64,2.95c0.15,0.52,0.36,1.05,0.36,1.57c0.02,10.71,0.02,21.41,0.02,32.39
	c0,1.61-1.32,2.98-2.92,3c-0.09,0-0.18,0-0.27,0c-10.74,0.01-21.49,0.09-32.23-0.04c-3.46-0.04-5.71,1.62-7.14,4.37
	c-1.47,2.81-0.58,5.46,1.09,8.12c1.69,2.69,3.25,5.59,4.18,8.61c1.5,4.86-0.19,8.83-4.72,11.06c-6.24,3.07-12.86,3.09-19.09,0.23
	c-6.09-2.8-7.37-8.77-3.85-15.43c0.96-1.82,2.14-3.53,3.33-5.22c1.52-2.15,2.17-4.43,0.94-6.84c-1.38-2.71-3.43-4.55-6.75-4.54
	c-11.01,0.03-22.03,0.01-33.04,0.01H4.67c-1.65,0-2.98-1.33-2.98-2.98v-98.36c0-1.65,1.33-2.98,2.98-2.98
	c10.83,0,21.66-0.08,32.49,0.04c3.65,0.04,6.01-1.67,7.57-4.65c1.44-2.76,0.26-5.11-1.34-7.51c-1.58-2.37-2.97-4.95-4-7.6
	c-2.08-5.35-0.07-10.26,5.17-12.49c5.8-2.46,11.91-2.48,17.7-0.27c6.77,2.58,7.6,8.55,5.11,14.54c-0.89,2.13-2.28,4.08-3.61,5.99
	c-1.81,2.62-2.27,5.37-0.68,8.11c1.47,2.55,3.76,3.9,6.93,3.87l34.24-0.02c0.68,0,1.24,0.55,1.23,1.23L105.47,248.98z"/>
<path class="st4" d="M355.63,317.52c4.7-0.05,6.91-4.7,4.47-8.68c-1.68-2.73-3.63-5.47-4.53-8.48c-1.93-6.44-0.56-12.08,6.14-15.09
	c6.05-2.72,12.39-2.7,18.46-0.65c5.9,1.99,9.05,6.11,8.23,13.12c-0.5,4.23-2.71,7.54-4.99,10.88c-1.77,2.59-1.71,5.56,0.55,7.28
	c1.25,0.95,3.08,1.59,4.65,1.61c11.01,0.13,22.02,0.07,33.03,0.06l0,0c1.02,0,1.84-0.83,1.84-1.85l0-100.07
	c0-1.12-0.92-2.03-2.04-2.03c-4.8,0-9.44,0-14.09,0c-6.23,0-12.46,0.07-18.68-0.05c-3.59-0.07-6.56-1.66-8.05-5
	c-1.28-2.88-0.39-5.56,1.67-7.97c1.09-1.28,1.89-2.84,2.67-4.36c3.86-7.51,1.36-14.17-6.82-16.1c-4.22-0.99-9.05-0.9-13.3,0.06
	c-7.36,1.65-10.05,7.9-7.04,14.86c0.95,2.2,2.42,4.2,3.78,6.2c2.91,4.25,1.56,9.45-3.2,11.34c-1.62,0.65-3.48,0.96-5.24,0.98
	c-10.11,0.09-20.22,0.04-30.32,0.04l-0.59,0c-1.47,0-2.67,1.21-2.67,2.68c0,2.38,0,4.56,0,6.74c0,8.48,0.02,16.97-0.02,25.45
	c-0.02,3.36-1.29,6.23-4.28,7.91c-3.16,1.78-5.96,0.64-8.72-1.37c-2.01-1.47-4.23-2.91-6.58-3.6c-3.13-0.92-6.09-1.07-8.53,0.1
	c-1.9,0.91-3.48,2.62-4.6,5.38c-1.15,2.86-1.69,5.78-1.69,8.7c0.01,2.67,0.47,5.34,1.34,7.95c0.39,1.18,0.85,2.21,1.37,3.08
	c1.04,1.73,2.35,2.86,4.04,3.42c1.52,0.51,3.35,0.56,5.55,0.17c1.06-0.19,2.11-0.5,3.14-0.9c2.18-0.84,4.3-2.05,6.29-3.24
	c2.55-1.53,4.89-2.69,7.79-1.33c3.17,1.49,4.77,4.13,4.82,7.51c0.09,7.29-0.02,14.58-0.04,21.88l0.02,11.72
	c0,0.95,0.77,1.72,1.72,1.71L355.63,317.52z"/>
<path class="st5" d="M421.38,423.77l-99.25,0c-1.31,0-2.37-1.05-2.42-2.36c-0.01-0.16-0.01-0.33-0.01-0.49
	c0-10.47-0.01-20.94,0.04-31.4c0-0.97,0.09-1.94,0.36-2.87c1.32-4.62,5.01-5.7,8.76-3.2c2.59,1.73,5.31,3.57,8.24,4.41
	c8.19,2.35,14.44-1.28,16.18-9.69c1.09-5.24,1.27-10.74-0.99-15.94c-3.24-7.47-8.55-8.27-14.76-6.9c-2.87,0.64-5.53,2.49-8.09,4.1
	c-1.97,1.24-3.76,2.7-6.15,1.4c-2.42-1.32-3.57-3.53-3.58-6.24c-0.03-7.49,0-14.98,0-22.47c0-3.28,0-6.56,0-9.99
	c0-1.33,1.08-2.41,2.41-2.41h1.12c10.38,0,20.76,0.03,31.14-0.01c4.66-0.02,8.29-2.61,8.51-6.57c0.11-2.04-0.89-4.25-1.76-6.22
	c-1.01-2.28-2.86-4.25-3.6-6.59c-2.36-7.44,0.54-12.76,8.21-14.31c3.79-0.77,8.01-0.81,11.79,0c8.58,1.84,11.38,8.56,7.39,16.47
	c-0.73,1.44-1.47,2.94-2.52,4.14c-2.15,2.47-3.11,5.17-1.71,8.18c1.6,3.46,4.7,4.87,8.38,4.88c10.29,0.05,20.58,0.02,30.87,0.02
	c3.75,0,3.75,0,3.75,3.81c0,22.74,0,45.48,0,68.22c0,9.54,0,19.08,0,28.62v1.08C423.7,422.73,422.66,423.77,421.38,423.77z"/>
<path class="st1" d="M1.61,104.23V3.71c0-1.07,0.86-1.93,1.93-1.93l99.82,0c1.47,0,2.68,1.18,2.71,2.65c0,0.13,0,0.26,0,0.39
	c0.01,10.38-0.12,20.76,0.1,31.14c0.05,2.28,0.85,4.83,2.11,6.72c2.14,3.23,6.26,3.42,9.55,1.28c2.47-1.61,5.03-3.2,7.77-4.25
	c6.02-2.32,10.78-0.36,13.21,5.58c2.18,5.34,2.18,11.05,0.26,16.4c-2.47,6.89-8.26,8.91-15.08,5.75c-1.87-0.86-3.71-1.9-5.32-3.18
	c-2.48-1.96-5.14-2.92-7.97-1.36c-3.14,1.73-5.19,4.41-5.19,8.27c0.01,10.29,0,20.58-0.01,30.87c0,0.4,0,0.79,0,1.21
	c0,1.1-0.85,2.01-1.95,2.08c-0.41,0.02-0.8,0.04-1.19,0.04c-3.31,0-6.63,0-9.94,0c-4.48-0.01-8.96-0.01-13.44,0
	c-2.77,0.01-5.53,0.02-8.3,0.05c-2.84,0.03-4.9-0.9-6.23-3.38c-1.32-2.46,0.15-4.26,1.49-6.13c2.21-3.09,4.03-6.34,4.4-10.26
	c0.81-8.59-3.56-12.16-9.92-13.38c-4.86-0.93-10.3-0.53-15.16,0.63C37,74.86,35.01,82.68,38,89.9c1.05,2.54,2.75,4.82,4.21,7.18
	c2.19,3.54,0.22,8.13-3.89,8.19l-35.7-0.02C2.06,105.25,1.61,104.79,1.61,104.23z"/>
<path class="st6" d="M319.59,5.41c0-2,1.62-3.62,3.62-3.62l0,0c32.32,0,64.64,0,96.96,0c3.56,0,3.57,0.01,3.57,3.49
	c0,32.41,0,64.82,0,97.22v0.87c0,1.22-0.99,2.2-2.2,2.2c-11.55,0.03-22.83,0.28-34.08-0.15c-5.18-0.2-6.5-4.79-3.74-9.36
	c1.87-3.1,3.74-6.45,4.47-9.92c1.71-8.17-3.28-12.7-9.99-14.04c-5.33-1.06-10.92-1.24-16.24,1c-5.13,2.16-7.36,6.19-6.88,11.77
	c0.36,4.19,1.74,7.88,4.4,11c4.22,4.96,0.19,9.69-4.64,9.83c-7.51,0.22-15.03,0.15-22.54,0.19c-2.96,0.02-5.91-0.08-8.87-0.13
	c-0.56-0.01-1.15,0-1.78,0.01c-1.13,0.02-2.05-0.89-2.05-2.02l0-1.13c-0.01-10.36-0.03-20.71,0.01-31.07
	c0.01-2.07-0.49-4.15-1.62-5.89c-2.51-3.87-6.56-4.29-10.11-2.07c-2.71,1.7-5.49,3.48-8.49,4.47c-6.42,2.13-11.32-0.45-13.11-7.03
	c-1.58-5.8-1.56-11.75,1.22-17.39c1.9-3.85,6.26-5.73,10.38-4.5c3.04,0.91,6.11,2.21,8.68,4.03c2.7,1.91,5.3,2.87,8.24,1.57
	c3.38-1.49,4.78-4.5,4.79-8.12c0.03-10.29,0.01-20.58,0.01-30.87L319.59,5.41z"/>
<path class="st5" d="M176.99,213.68c-0.28-0.01-1.21,0.07-2.4,0.31c-4.04,0.8-5.76,5.37-3.21,8.74c2.03,2.69,3.51,5.94,4.59,9.16
	c1.83,5.47-0.77,11.44-6,13.89c-6.04,2.82-12.32,2.68-18.46,0.97c-4-1.11-7.17-3.57-8.37-8c-1.24-4.56,0.25-8.53,2.27-12.41
	c0.86-1.65,2.42-2.97,3.15-4.65c1.83-4.25-0.91-8.01-6.25-8.02c-3.87-0.01-7.74-0.01-11.6-0.01c-3.9,0-7.81,0-11.71,0.01
	c-3.15,0-6.3,0.01-9.45,0.01c-0.24,0-0.47,0.03-0.72,0.07c-0.68,0.12-1.18,0.71-1.18,1.39c0,0.77,0,1.5,0,2.22
	c0,10.56,0.04,21.12-0.03,31.68c-0.02,3.45-1.41,6.42-4.61,7.98c-2.91,1.42-5.54,0.6-8.26-1.27c-2.69-1.85-5.79-3.24-8.9-4.27
	c-3.82-1.26-7.97,0.54-9.99,4.07c-3.76,6.59-3.72,13.47-0.68,20.24c2.09,4.66,6.58,6.51,11.48,4.88c3.1-1.03,6.12-2.61,8.79-4.47
	c2.35-1.63,5.45-1.98,7.95-0.59c2.83,1.58,4.18,4.34,4.22,7.61c0.06,4.51-0.1,9.02-0.11,13.53c-0.02,6.46-0.04,13.45-0.04,19.77
	c0,0.6,0.49,1.08,1.09,1.08l35.27,0c4.46-0.07,6.57-5.14,4.09-8.87c-1.29-1.94-2.65-3.88-3.61-5.99
	c-4.47-9.75,0.48-17.67,9.54-18.66c4.06-0.44,8.27-0.36,12.34,0.13c7.18,0.88,12.05,8.03,9.84,14.91c-1.04,3.21-2.7,6.29-4.51,9.16
	c-1.29,2.03-1.95,4.03-0.91,6.06c1.12,2.19,3.17,3.29,5.79,3.26c5.96-0.07,11.91-0.02,17.87-0.02c5.02,0,10.03,0,15.4,0
	c1.01,0,1.84-0.83,1.84-1.83c0-0.53,0-1.01,0-1.49c0-10.47-0.01-20.94-0.01-31.41c0-3.32,1.3-5.93,4.26-7.58
	c3-1.67,5.63-0.89,8.26,1.04c1.87,1.37,3.9,2.67,6.07,3.44c5.89,2.1,10.96,1.69,13.9-4.62c2.82-6.05,2.71-12.46-0.04-18.59
	c-1.68-3.74-4.66-5.81-9.01-5.63c-4.48,0.19-8.01,2.45-11.45,4.95c-3.16,2.3-6.43,2.26-9.09-0.23c-0.99-0.92-1.73-1.95-2.21-3.1
	c-0.7-1.64-0.69-3.09-0.69-3.63c0-3.09-0.01-28.12-0.01-34.04c0-0.69-0.56-1.25-1.25-1.25C204.28,213.66,179,213.72,176.99,213.68z"
	/>
<path class="st0" d="M209.19,107.81c1.29,0,2.34,1.05,2.34,2.34c0,4.58,0,8.9,0,13.21c0,6.5-0.08,13,0.04,19.49
	c0.05,2.69-1.12,4.65-3.22,5.82c-2.03,1.13-4,0.3-6-0.97c-2.77-1.75-5.73-3.45-8.85-4.37c-6.91-2.04-12.43,0.83-14.76,7.62
	c-1.92,5.58-1.96,11.43-0.1,17.02c2.69,8.11,10.53,10.95,18.39,6.96c1.83-0.93,3.55-2.1,5.24-3.28c1.76-1.23,3.62-2.38,5.73-1.29
	c2.27,1.18,3.58,3.1,3.56,5.88c-0.07,8.75-0.02,17.51-0.02,26.26c0,2.43-0.04,4.85,0.02,7.28c0.04,1.79-0.94,1.99-2.43,1.98
	c-11-0.11-22.01-0.25-33.02-0.17c-3.23,0.02-5.86,1.68-7.34,4.71c-1.39,2.84-0.61,5.3,1.22,7.77c2.42,3.26,4.41,6.76,4.47,11.06
	c0.07,5.63-3.13,9.38-9.9,10.4c-4.52,0.68-9.14,0.77-13.59-1.08c-5.36-2.23-7.9-7.72-5.65-13.1c1.04-2.47,2.3-4.92,3.88-7.07
	c1.95-2.64,2.85-5.29,1.23-8.25c-1.64-3-4.42-4.47-7.8-4.49c-10.47-0.06-20.94-0.02-31.41-0.02c-0.53,0-1.06,0-1.62,0
	c-0.99,0-1.79-0.77-1.86-1.76c-0.02-0.3-0.03-0.59-0.03-0.87c0-4.29,0-8.59,0.01-12.88c0-2.92,0-5.84,0-8.77
	c-0.01-3.61-0.02-7.23-0.05-10.84c-0.02-2.76,1.11-4.88,3.33-6.03c2.22-1.15,4.41-0.29,6.45,1.28c4.32,3.32,9.06,5.53,14.76,4.38
	c4.35-0.88,7.05-3.87,8.29-7.73c2.05-6.39,2.2-12.95-0.71-19.25c-2.47-5.35-8.31-8.03-13.95-6.05c-3.09,1.08-6.01,2.76-8.82,4.48
	c-1.86,1.14-3.65,2.26-5.72,1.14c-2.33-1.27-3.66-3.28-3.63-6.14c0.08-6.68,0.03-13.36,0.03-20.04v-12.71c0-1.22,0.99-2.2,2.2-2.2
	c2.59-0.01,5.1-0.01,7.61,0.01c8.48,0.08,16.96,0.28,25.43,0.21c3.23-0.03,5.95-1.57,7.49-4.54c1.54-2.98,0.67-5.55-1.29-8.22
	c-2.89-3.93-5.37-8.19-4.35-13.45c0.61-3.16,2.6-5.46,5.5-6.52c6.2-2.28,12.55-2.5,18.71,0.19c5.81,2.54,6.36,7.91,4.68,13.31
	c-0.7,2.27-2.06,4.43-3.5,6.35c-2.07,2.75-2.99,5.53-1.12,8.67c1.62,2.73,4.69,4.26,7.87,4.27c10.33,0.03,20.65,0.01,30.98,0.02
	C208.32,107.81,208.74,107.81,209.19,107.81z"/>
<path class="st3" d="M423.54,110.31v99.35c0,0.95-0.74,1.79-1.69,1.79c-0.01,0-0.01,0-0.02,0c-11.1,0.01-22.2,0.02-33.3-0.02
	c-1.05,0-2.21-0.16-3.12-0.63c-3.49-1.77-4.24-5.12-1.98-8.36c2.58-3.72,4.98-7.47,5.08-12.25c0.11-5.18-2.15-9.02-6.94-11.11
	c-5.98-2.6-12.27-2.69-18.25-0.68c-9.23,3.11-10.21,10.81-6.76,18.68c0.85,1.94,2.21,3.68,3.45,5.44c2.53,3.59,0.67,8.11-3.71,8.78
	c-1.06,0.16-2.16,0.15-3.24,0.15c-10.11,0.01-20.22,0-30.32,0c-0.23,0-0.46,0-0.69,0c-1.28,0-2.37-1.01-2.38-2.29
	c0-0.01,0-0.01,0-0.02c0-1.5,0-3-0.01-4.5c-0.01-3.56-0.01-7.13-0.01-10.69c0-4.04,0-8.08,0.01-12.13c0-1.54,0.01-3.09,0.01-4.63
	c0.02-4.51,2.66-7.59,6.21-7.12c1.24,0.17,2.36,1.14,3.56,1.69c3.48,1.59,6.85,3.59,10.49,4.62c4.48,1.26,9.68-1.62,11.82-6.08
	c2.95-6.14,3.02-12.7,0.95-18.96c-2.68-8.1-9.63-10.87-17.49-7.52c-2.05,0.87-4.06,2.01-5.79,3.39c-1.93,1.55-4,2.48-6.2,1.5
	c-2.49-1.12-3.51-3.59-3.55-6.26c-0.09-5.5-0.03-11.01-0.03-16.51c0-5.57,0-11.14,0.01-16.72c0,0,0-0.01,0-0.01
	c0.01-0.94,0.81-1.67,1.74-1.67c4.93,0,9.9-0.03,14.86,0.01c6.4,0.04,12.81,0.33,19.2,0.14c3.09-0.09,5.83-1.79,7.09-4.7
	c1.26-2.91,0.5-5.7-1.5-8.32c-3-3.92-5.33-8.18-3.99-13.44c0.76-2.99,2.64-5.03,5.45-6.23c6.14-2.61,12.35-2.34,18.41,0.07
	c5.69,2.26,7.35,8.8,4.09,15.19c-0.81,1.59-1.66,3.22-2.78,4.6c-1.98,2.44-2.94,5.08-1.52,7.98c1.65,3.36,4.61,4.93,8.34,4.94
	c10.38,0.02,20.76,0.01,31.14,0c0.28,0,0.56,0,0.84,0C422.42,107.81,423.54,108.93,423.54,110.31z"/>
<path class="st7" d="M211.76,104.05c0,0.97-0.79,1.75-1.75,1.75c-2.75,0-5.27,0-7.8,0c-8.12,0-16.25,0.16-24.37-0.11
	c-2.15-0.07-4.53-1.06-6.31-2.31c-1.97-1.39-1.76-4.18-0.47-6.34c1.69-2.84,3.51-5.66,4.67-8.72c2.79-7.4-1-14.69-9.99-16.31
	c-4.09-0.74-8.66-0.92-12.63,0.12c-9.42,2.46-12.49,9.09-8.93,18.23c0.86,2.22,2.32,4.24,3.66,6.24c2.36,3.52,1.24,7.24-2.74,8.58
	c-0.85,0.29-1.75,0.56-2.63,0.56c-3.05,0.02-6.09,0.03-9.14,0.04c-4.35,0.01-8.7,0.02-13.05,0.03c-3.6,0-7.19,0.01-10.79,0.01
	c-0.26,0-0.52-0.03-0.79-0.07c-0.51-0.08-0.9-0.51-0.94-1.02c-0.04-0.46-0.07-0.9-0.07-1.34c0-2.14,0-4.29,0-6.43
	c0-4.87,0-9.74,0-14.6c0-3.73-0.01-7.46-0.02-11.19c-0.01-2.94,1.45-4.97,3.81-6.37c2.45-1.45,4.26,0.16,6.38,1.3
	c3.42,1.84,7.05,3.68,10.8,4.41c5.66,1.1,10.29-2.37,12.2-7.88c2.03-5.85,2.1-11.64,0.01-17.47c-2.82-7.88-9-9.48-16.06-7.34
	c-2.6,0.79-5.01,2.41-7.32,3.92c-4.58,3.01-9.04,0.96-9.58-4.54c-0.06-0.63-0.03-1.26-0.03-1.89c0-10.11-0.01-20.22,0-30.33
	c0-0.42,0.02-0.83,0.04-1.26c0.05-1.01,0.88-1.8,1.88-1.8l99.56,0c1.27,0,2.33,1,2.37,2.27c0.01,0.25,0.01,0.5,0.01,0.74
	c0.01,10.18-0.12,20.37,0.11,30.55c0.05,2.38,0.88,5.01,2.15,7.02c2.16,3.41,6.32,3.72,9.75,1.5c2.32-1.5,4.7-3.05,7.26-4.02
	c7.31-2.77,12.61-0.37,14.32,7.32c0.98,4.4,0.73,9.4-0.26,13.84c-1.63,7.34-8.03,9.41-15.11,6.33c-1.64-0.71-3.3-1.54-4.66-2.67
	c-2.69-2.23-5.49-3.6-8.85-1.85c-3.62,1.89-4.67,5.32-4.69,9.12c-0.05,10.11-0.02,20.22-0.02,30.33L211.76,104.05z"/>
<path class="st2" d="M213.87,3.93c0-1.17,0.95-2.13,2.13-2.13l1.1,0c32.44,0,64.88,0.03,97.32-0.06c2.67-0.01,3.32,0.82,3.29,3.37
	c-0.14,10.38,0.01,20.76-0.13,31.14c-0.02,1.68-0.68,3.54-1.58,4.98c-1.51,2.41-4.13,2.79-6.62,1.31c-2.16-1.28-4.15-2.93-6.44-3.92
	c-9.92-4.26-16.78-0.75-19.14,9.75c-1.22,5.42-0.75,10.75,1.63,15.84c3,6.44,9.13,7.49,14.87,5.79c2.69-0.8,5.2-2.43,7.59-3.98
	c2.1-1.36,3.96-2.87,6.74-0.91c1.91,1.35,2.99,3.59,3.01,5.93c0.04,6.82,0.01,13.64,0.02,20.46c0,3.79-0.12,7.59,0.04,11.37
	c0.01,2.99-0.38,2.99-3.25,2.92c-10.2-0.11-20.01-0.13-30.21,0.02c-2.16,0.03-4.58,0.5-6.39,1.58c-4.28,2.55-4.83,6.54-1.96,10.59
	c2.24,3.16,4.37,6.29,4.69,10.4c0.47,6.06-2.15,9.12-7.39,10.67c-5.2,1.54-10.72,1.62-15.93-0.45c-6.59-2.61-7.49-8.19-5.43-13.78
	c0.91-2.48,2.43-4.81,3.98-6.98c3.13-4.4,1.16-10.24-4.13-11.54c-1.47-0.36-3.03-0.51-4.55-0.52c-9.93-0.05-19.86-0.03-29.79-0.03
	c-0.47,0-0.94,0-1.43,0c-1.12,0-2.03-0.91-2.03-2.03c0-0.6,0-1.16,0-1.73c0-10.2-0.04-20.4,0.04-30.6c0.01-1.43,0.35-2.86,1.05-4.1
	c2.06-3.62,4.99-4.05,8.31-1.52c3.4,2.6,7.11,4.54,11.5,4.88c5.14,0.4,9.3-1.77,11.38-6.52c2.88-6.57,2.94-13.42,0.28-20.01
	c-2.89-7.17-9.22-8.49-15.94-6.2c-2.66,0.9-5.06,2.65-7.47,4.18c-4,2.55-8.98,0.39-9.06-4.38C213.74,26.61,213.85,15.49,213.87,3.93
	z"/>
<path class="st6" d="M103.21,320.01c1.29,0,2.33,1.05,2.33,2.34l0,0.66c0,10.11,0.02,20.21-0.02,30.32
	c-0.01,1.33-0.11,2.73-0.52,3.98c-1.29,3.92-4.95,5.01-8.36,2.73c-2.15-1.44-4.33-2.97-6.71-3.93c-9.96-4.03-17.18,1.47-18.18,10.87
	c-0.49,4.63-0.61,9.16,1.04,13.57c3.01,8.03,9.79,9.36,16.48,6.96c2.41-0.86,4.66-2.32,6.77-3.8c1.91-1.33,3.98-2.49,5.9-1.04
	c1.56,1.18,2.63,3.17,3.5,5.04c0.17,0.37,0.1,1.42,0.1,2.14c0,10.2,0,20.39,0,30.59l0,0.32c0,1.54-1.25,2.8-2.8,2.8H3.11
	c-0.78,0-1.41-0.63-1.41-1.41l0-99.5c0-1.27,1-2.34,2.26-2.36c0.05,0,0.1,0,0.15,0c2.55,0,5.1,0,7.66,0
	c6.53,0,13.05,0.01,19.58-0.01c2.11-0.01,4.22-0.02,6.33-0.03c2.22-0.01,3.8,0.69,4.91,2.63c1.21,2.11,0.49,3.86-0.57,5.79
	c-1.75,3.19-3.69,6.39-4.71,9.83c-2.1,7.06,1.83,12.39,8.36,14.33c5.77,1.71,11.71,1.74,17.47-0.55c7.48-2.98,8.32-9.06,6.67-15.27
	c-0.76-2.85-2.68-5.43-4.26-8.01c-1.13-1.85-2.2-3.62-1.03-5.76c1.15-2.09,2.78-3.31,5.4-3.28c3.42,0.03,6.84,0.04,10.26,0.05
	c4.28,0.01,8.56,0,12.83,0C96.41,320.01,99.81,320.01,103.21,320.01L103.21,320.01z"/>
<path class="st7" d="M213.42,283.27c0.02-4.56,2.59-7.28,6.42-6.76c1.16,0.16,2.22,1.02,3.32,1.57c2.79,1.4,5.46,3.21,8.4,4.15
	c6.57,2.09,12.37-0.9,14.66-7.36c1.98-5.6,1.98-11.43,0.32-17.03c-2.38-8.06-9.6-10.98-17.71-7.44c-2.29,1-4.47,2.35-6.49,3.83
	c-3.71,2.72-7.21,0.56-8.45-2.65c-0.35-0.9-0.47-1.94-0.48-2.91c-0.03-11.1-0.02-22.21-0.01-33.31c0-0.23,0.02-0.45,0.05-0.71
	c0.05-0.47,0.42-0.84,0.89-0.92c0.45-0.07,0.88-0.13,1.31-0.13c10.74-0.02,21.49-0.11,32.23,0.08c1.9,0.03,4.02,0.91,5.61,2.02
	c2.09,1.46,2.02,4.29,0.68,6.52c-1.7,2.83-3.52,5.67-4.67,8.74c-2.88,7.72,1.52,14.66,9.67,16.22c4.9,0.94,9.75,0.98,14.45-0.38
	c7.94-2.29,10.97-9.69,7.45-17.75c-0.96-2.2-2.27-4.29-3.66-6.26c-2.56-3.62-1.24-7.66,3.06-8.83c0.77-0.21,1.59-0.35,2.39-0.35
	c10.92-0.02,21.85-0.02,32.77-0.01l0.02,0c1.05,0,1.91,0.82,1.96,1.87c0.01,0.2-0.03,0.39-0.02,0.59
	c0.14,10.29,0.14,20.23-0.13,30.97c-0.12,4.82-2.26,8.61-6.11,8.17c-0.91-0.1-1.79-0.7-2.64-1.13c-2.92-1.49-5.71-3.36-8.74-4.52
	c-6.62-2.53-13.97,1.56-15.7,8.43c-1.53,6.06-1.68,12.01,0.99,17.74c3.49,7.48,10.36,8.2,16.93,5.47c2.05-0.85,3.95-2.14,5.75-3.46
	c2-1.47,4.43-2.34,6.25-0.95c1.64,1.26,3.11,3.69,3.29,5.72c0.46,5.29,0.16,10.64,0.16,15.96c0,5.31,0,10.62-0.01,15.94
	c0,0.58-0.03,1.17-0.07,1.82c-0.04,0.77-0.69,1.37-1.46,1.37c-0.62,0-1.19,0-1.76,0c-10.56,0-21.12-0.05-31.69,0.03
	c-2.56,0.02-4.67-0.77-5.91-2.83c-1.05-1.75-0.9-3.97,0.18-5.71c2.11-3.42,4.19-7.19,5.14-11.11c1.48-6.12-2.03-11.7-8.32-13.49
	c-6.09-1.73-12.3-1.83-18.26,0.79c-5.75,2.53-8.53,8.74-6.27,14.62c1.21,3.14,2.85,6.21,4.77,8.97c2.81,4.03-0.44,8.52-3.74,8.58
	c-11.48,0.21-23.17,0.09-34.8,0.08c-1.13,0-2.05-0.92-2.05-2.05L213.42,283.27z"/>
</svg>
